<svg width="50" height="50" viewBox="0 0 50 50" fill="none" xmlns="http://www.w3.org/2000/svg">
<path d="M49.42 35.7739C47.4763 35.3821 46.0109 36.7861 44.1758 34.694C43.6962 34.1477 43.0036 34.4557 42.7838 35.121C41.2088 39.8962 37.9324 37.5892 36.4311 34.2445C36.1402 33.5971 35.3168 33.6532 35.014 34.2445C33.9763 37.1933 31.9783 37.5565 29.0192 35.334C28.5493 34.8565 27.7783 35.0171 27.6016 35.7687C26.3134 41.2505 21.8117 39.7445 20.4248 35.24C20.355 35.0131 20.2048 34.903 20.0488 34.8833C19.7333 34.4245 19.0186 34.287 18.7723 34.9305C16.9982 39.5629 13.7054 38.8538 11.6558 34.9366C11.2859 34.2297 10.5221 34.4748 10.2796 35.1456C8.55589 39.9113 3.53354 39.8018 3.62297 34.0731C3.63279 33.4386 2.81515 33.3141 2.67688 33.9245C1.05911 41.064 8.57925 42.3021 11.1842 37.0614C13.8749 40.6157 17.9098 41.3451 19.8341 36.5616C21.4758 41.8079 26.8386 42.8398 28.8319 37.6197C31.3631 39.5842 33.7744 39.2756 35.6766 36.4846C37.9966 40.3324 42.1305 41.7499 43.9656 37.0019C45.6497 38.3257 46.7669 37.3996 49.2037 37.6265C50.1132 37.7116 50.3209 35.9558 49.42 35.7739Z" fill="#00B2A0"/>
<path d="M46.3751 43.4668C45.6127 44.922 45.3491 46.226 43.716 46.9373C41.7057 47.8135 39.7047 45.7229 38.714 44.0088C38.3722 43.4172 37.5432 43.3034 37.2239 44.0088C35.8246 47.1007 32.7254 46.3457 31.403 43.3617C31.0779 42.6276 29.9785 42.7586 29.8434 43.5984C29.1003 48.2241 25.7639 48.7137 23.5294 45.361C23.7733 44.4583 22.501 43.8438 22.1542 44.7274C20.2785 49.5069 16.6165 48.973 14.491 44.7077C14.1221 43.9675 13.2957 44.2271 13.0574 44.9253C11.3301 49.9888 8.63961 47.5801 7.12985 44.0948C6.8358 43.4156 5.9972 43.6508 5.81992 44.2936C4.99485 47.2872 3.63556 47.8461 1.34558 48.6206C0.914331 48.7667 0.980942 49.6361 1.45518 49.5627C4.07901 49.1564 5.51208 48.6141 6.58449 46.3441C8.78769 50.3409 11.8635 51.1572 13.9273 46.9518C16.6035 50.8434 20.9024 51.287 23.0323 46.657C25.3982 50.3957 29.366 50.2117 30.9548 46.1376C33.0046 48.9464 35.988 49.3411 38.0522 46.1977C41.124 49.7856 47.4064 50.5887 47.6303 43.8626C47.6582 43.0605 46.7124 42.8228 46.3751 43.4668Z" fill="#00B2A0"/>
<path d="M14.1106 7.50507C13.5963 7.67895 13.3936 8.12751 13.4092 8.5804C9.76499 9.20593 7.40574 13.383 7.12417 17.5845C6.7391 23.3329 10.9422 26.7097 15.4994 26.2809C20.1589 25.8428 23.1901 21.0025 23.0532 15.8007C22.9163 10.605 18.6794 5.95773 14.1106 7.50507ZM14.8693 23.653C11.5247 23.9717 9.36108 21.3478 9.42503 17.5845C9.49217 13.6401 12.0937 11.0391 15.1095 9.99917C15.1647 9.98006 15.2045 9.94738 15.2494 9.9184C18.1893 10.4511 20.4126 11.7506 20.725 15.8001C21.0493 20.0006 18.3944 23.3163 14.8693 23.653Z" fill="#00B2A0"/>
<path d="M9.87046 7.33132C9.32191 6.63796 8.71419 6.02877 8.09187 5.4276C7.47485 4.83135 6.82042 3.67771 5.9505 3.77205C5.48979 3.822 5.1777 4.16143 5.14559 4.70711C5.08455 5.74267 5.9635 6.25136 6.60281 6.77947C7.33367 7.3828 8.09293 7.92263 8.77124 8.60859C9.52387 9.37008 10.5538 8.19485 9.87046 7.33132Z" fill="#00B2A0"/>
<path d="M4.82637 10.4497C5.11882 10.4907 4.86034 10.4414 4.78311 10.4134C4.66449 10.3699 4.54825 10.3178 4.43228 10.266C4.30092 10.2077 4.17088 10.1448 4.04111 10.0819C4.03235 10.0776 4.02757 10.0755 4.01457 10.0687C3.8909 9.79276 3.67833 9.57048 3.40472 9.4709C2.91615 9.29239 2.17308 8.86602 1.64497 9.05871C1.34642 9.16784 1.03353 9.45486 0.975411 9.83653C0.975411 9.83653 0.975146 9.83808 0.975146 9.83869C0.919946 10.2003 0.943831 10.6708 1.22169 10.9223C1.3764 11.0617 1.55739 11.1604 1.74608 11.2454C1.59322 11.2448 1.71662 11.2532 1.85489 11.2905C1.95281 11.3296 2.04941 11.3697 2.15026 11.4008C2.39335 11.4958 2.63617 11.5923 2.87794 11.6906C3.01673 11.7477 3.15977 11.7526 3.29804 11.7236C3.7951 11.8771 4.3394 12.051 4.82664 12.0165C5.71248 11.9536 5.67453 10.569 4.82637 10.4497Z" fill="#00B2A0"/>
<path d="M3.3091 19.2588C2.93704 19.6211 2.50287 19.905 2.07985 20.1772C1.86118 20.3181 1.63507 20.4639 1.40074 20.5666C1.26035 20.628 1.0369 20.5765 1.34581 20.6421C1.19242 20.6098 1.04699 20.6064 0.894392 20.5873C-0.391915 20.426 -0.274881 23.1242 1.14306 22.7222C1.66533 22.5742 2.19901 21.9952 2.643 21.6244C3.1581 21.1943 3.67241 20.7241 4.09702 20.1741C4.58241 19.5458 3.85606 18.7258 3.3091 19.2588Z" fill="#00B2A0"/>
<path d="M6.58672 24.6062C6.15096 25.3831 5.75369 26.1883 5.33916 26.9804C4.88987 27.8383 4.12875 28.4781 4.02897 29.5047C3.96528 30.1601 4.58309 30.4847 5.03928 30.3987C5.9721 30.223 6.42723 28.8437 6.76824 27.9503C7.12014 27.0285 7.33643 26.0616 7.61826 25.1109C7.83481 24.3787 6.9219 24.0081 6.58672 24.6062Z" fill="#00B2A0"/>
<path d="M15.4027 27.3986C15.3109 26.8502 14.5808 26.8764 14.4738 27.3986C14.1931 28.7715 13.8643 30.1326 13.5885 31.5067C13.5219 31.8384 13.5792 32.2222 13.8056 32.4609C13.7685 32.4032 13.7727 32.4146 13.8181 32.4945C14.088 33.0068 14.6551 32.9483 14.9348 32.4945C14.6793 32.9088 15.1158 32.2938 15.1315 32.2623C15.2344 32.0579 15.2432 31.8433 15.2541 31.614C15.2769 31.1392 15.3249 30.6656 15.3639 30.1924C15.4406 29.2697 15.5566 28.3171 15.4027 27.3986Z" fill="#00B2A0"/>
<path d="M25.0969 28.2096C24.4295 27.0973 23.3695 26.3833 22.7629 25.2346C22.3476 24.4478 21.3964 25.1332 21.7173 25.9446C21.9954 26.6478 22.4203 27.2317 22.8589 27.8073C23.0683 28.082 23.2828 28.3502 23.4669 28.6487C23.7183 29.0559 23.8215 29.5134 24.3114 29.5927C24.5932 29.6383 24.9149 29.5735 25.0571 29.2397C25.0704 29.2088 25.0836 29.178 25.0966 29.1469C25.2182 28.8626 25.2649 28.4899 25.0969 28.2096Z" fill="#00B2A0"/>
<path d="M28.981 19.9104C27.8577 19.9792 26.734 20.0452 25.6107 20.1102C24.5998 20.1688 24.5998 21.8737 25.6107 21.9325C26.7343 21.9979 27.8577 22.0639 28.981 22.132C30.2145 22.2075 30.2145 19.8355 28.981 19.9104Z" fill="#00B2A0"/>
<path d="M28.9814 7.09895C27.9623 7.07429 27.1386 8.49614 26.5279 9.32207C25.8716 10.2093 25.295 11.1709 24.6259 12.0465C24.1148 12.7155 24.9027 13.6419 25.4725 13.0299C26.1471 12.3048 26.7596 11.5079 27.4072 10.751C27.7728 10.3237 28.1513 9.89334 28.5663 9.53047C29.0767 9.08499 29.4777 8.9404 29.7046 8.20141C29.8731 7.65296 29.4394 7.11005 28.9814 7.09895Z" fill="#00B2A0"/>
<path d="M24.085 1.2963C23.4818 1.74579 23.0795 2.47583 22.665 3.14329C22.1817 3.92143 21.7223 4.70327 21.1634 5.41296C20.5305 6.21669 21.5151 7.3731 22.1947 6.611C22.7223 6.01907 23.1894 5.37381 23.6471 4.70912C24.1386 3.99573 24.7724 3.34245 25.1768 2.56431C25.5828 1.78371 24.7655 0.789458 24.085 1.2963Z" fill="#00B2A0"/>
<path d="M16.5488 0.226597C16.2548 -0.0755323 15.87 -0.0755323 15.5759 0.226597C14.9987 0.819757 15.2649 1.85532 15.3129 2.64486C15.3681 3.55064 15.4273 4.45548 15.4982 5.36002C15.5642 6.20352 16.5605 6.20352 16.6266 5.36002C16.6974 4.45517 16.7566 3.55094 16.8118 2.64486C16.8598 1.85563 17.126 0.819449 16.5488 0.226597Z" fill="#00B2A0"/>
</svg>
